<mxfile host="app.diagrams.net" modified="2023-08-01T03:58:08.017Z" agent="Mozilla/5.0 (Windows NT 10.0; Win64; x64) AppleWebKit/537.36 (KHTML, like Gecko) Chrome/115.0.0.0 Safari/537.36" etag="ojoNgL-47xMev31-5dD9" version="21.6.5" type="device">
  <diagram name="Page-1" id="o0j0U-XRln4QEjzO58CT">
    <mxGraphModel dx="4500" dy="1884" grid="0" gridSize="10" guides="1" tooltips="1" connect="1" arrows="1" fold="1" page="0" pageScale="1" pageWidth="1400" pageHeight="850" math="0" shadow="0">
      <root>
        <mxCell id="0" />
        <mxCell id="1" parent="0" />
        <mxCell id="Y2tLaWggDs4rHhR7xXSm-79" value="" style="rounded=0;whiteSpace=wrap;html=1;fillColor=#dae8fc;strokeColor=#6c8ebf;" vertex="1" parent="1">
          <mxGeometry x="-1913" y="-519" width="1467" height="1004" as="geometry" />
        </mxCell>
        <mxCell id="Y2tLaWggDs4rHhR7xXSm-78" value="" style="rounded=0;whiteSpace=wrap;html=1;fillColor=#d5e8d4;strokeColor=#82b366;" vertex="1" parent="1">
          <mxGeometry x="-1163" y="-270" width="630" height="554" as="geometry" />
        </mxCell>
        <mxCell id="Y2tLaWggDs4rHhR7xXSm-77" value="" style="rounded=0;whiteSpace=wrap;html=1;fillColor=#d5e8d4;strokeColor=#82b366;" vertex="1" parent="1">
          <mxGeometry x="-1834" y="-247" width="470" height="494" as="geometry" />
        </mxCell>
        <mxCell id="Y2tLaWggDs4rHhR7xXSm-1" value="Oversampling by N" style="whiteSpace=wrap;html=1;aspect=fixed;fillColor=#fff2cc;strokeColor=#d6b656;" vertex="1" parent="1">
          <mxGeometry x="-1714" y="-60" width="90" height="90" as="geometry" />
        </mxCell>
        <mxCell id="Y2tLaWggDs4rHhR7xXSm-4" value="TX_OUT (RX_IN)" style="text;html=1;strokeColor=none;fillColor=none;align=center;verticalAlign=middle;whiteSpace=wrap;rounded=0;strokeWidth=1;fontSize=21;" vertex="1" parent="1">
          <mxGeometry x="-2025" y="-82" width="60" height="30" as="geometry" />
        </mxCell>
        <mxCell id="Y2tLaWggDs4rHhR7xXSm-13" value="FSM" style="whiteSpace=wrap;html=1;aspect=fixed;fillColor=#fff2cc;strokeColor=#d6b656;" vertex="1" parent="1">
          <mxGeometry x="-1548" y="-70" width="115" height="115" as="geometry" />
        </mxCell>
        <mxCell id="Y2tLaWggDs4rHhR7xXSm-30" value="SIPO" style="whiteSpace=wrap;html=1;aspect=fixed;fillColor=#fff2cc;strokeColor=#d6b656;" vertex="1" parent="1">
          <mxGeometry x="-985" y="-70" width="106" height="106" as="geometry" />
        </mxCell>
        <mxCell id="Y2tLaWggDs4rHhR7xXSm-34" value="PAR_CHECK" style="whiteSpace=wrap;html=1;aspect=fixed;fillColor=#fff2cc;strokeColor=#d6b656;" vertex="1" parent="1">
          <mxGeometry x="-796" y="-170" width="80" height="80" as="geometry" />
        </mxCell>
        <mxCell id="Y2tLaWggDs4rHhR7xXSm-35" value="STOP_CHECK" style="whiteSpace=wrap;html=1;aspect=fixed;fillColor=#fff2cc;strokeColor=#d6b656;" vertex="1" parent="1">
          <mxGeometry x="-790" y="62" width="80" height="80" as="geometry" />
        </mxCell>
        <mxCell id="Y2tLaWggDs4rHhR7xXSm-41" value="RX_CHECK" style="whiteSpace=wrap;html=1;aspect=fixed;fillColor=#fff2cc;strokeColor=#d6b656;" vertex="1" parent="1">
          <mxGeometry x="-634" y="-60" width="80" height="80" as="geometry" />
        </mxCell>
        <mxCell id="Y2tLaWggDs4rHhR7xXSm-42" value="" style="endArrow=classic;html=1;rounded=0;" edge="1" parent="1">
          <mxGeometry width="50" height="50" relative="1" as="geometry">
            <mxPoint x="-2079" y="-27" as="sourcePoint" />
            <mxPoint x="-1778" y="-27" as="targetPoint" />
            <Array as="points">
              <mxPoint x="-1818" y="-27" />
            </Array>
          </mxGeometry>
        </mxCell>
        <mxCell id="Y2tLaWggDs4rHhR7xXSm-43" value="" style="endArrow=classic;html=1;rounded=0;" edge="1" parent="1">
          <mxGeometry width="50" height="50" relative="1" as="geometry">
            <mxPoint x="-1340" y="-102" as="sourcePoint" />
            <mxPoint x="-1186" y="-102" as="targetPoint" />
          </mxGeometry>
        </mxCell>
        <mxCell id="Y2tLaWggDs4rHhR7xXSm-50" value="SIPO_EN" style="edgeLabel;html=1;align=center;verticalAlign=middle;resizable=0;points=[];fontSize=18;" vertex="1" connectable="0" parent="Y2tLaWggDs4rHhR7xXSm-43">
          <mxGeometry x="-0.3577" y="5" relative="1" as="geometry">
            <mxPoint x="19" y="3" as="offset" />
          </mxGeometry>
        </mxCell>
        <mxCell id="Y2tLaWggDs4rHhR7xXSm-46" value="" style="endArrow=classic;html=1;rounded=0;" edge="1" parent="1">
          <mxGeometry width="50" height="50" relative="1" as="geometry">
            <mxPoint x="-1345" y="-41" as="sourcePoint" />
            <mxPoint x="-1196" y="-41" as="targetPoint" />
          </mxGeometry>
        </mxCell>
        <mxCell id="Y2tLaWggDs4rHhR7xXSm-51" value="PAR_EN" style="edgeLabel;html=1;align=center;verticalAlign=middle;resizable=0;points=[];fontSize=18;" vertex="1" connectable="0" parent="Y2tLaWggDs4rHhR7xXSm-46">
          <mxGeometry x="-0.0479" y="-6" relative="1" as="geometry">
            <mxPoint y="-11" as="offset" />
          </mxGeometry>
        </mxCell>
        <mxCell id="Y2tLaWggDs4rHhR7xXSm-47" value="" style="endArrow=classic;html=1;rounded=0;" edge="1" parent="1">
          <mxGeometry width="50" height="50" relative="1" as="geometry">
            <mxPoint x="-1330" y="18" as="sourcePoint" />
            <mxPoint x="-1198" y="18" as="targetPoint" />
          </mxGeometry>
        </mxCell>
        <mxCell id="Y2tLaWggDs4rHhR7xXSm-52" value="STOP_EN" style="edgeLabel;html=1;align=center;verticalAlign=middle;resizable=0;points=[];fontSize=18;" vertex="1" connectable="0" parent="Y2tLaWggDs4rHhR7xXSm-47">
          <mxGeometry x="-0.2169" y="-1" relative="1" as="geometry">
            <mxPoint x="3" y="-3" as="offset" />
          </mxGeometry>
        </mxCell>
        <mxCell id="Y2tLaWggDs4rHhR7xXSm-48" value="" style="endArrow=classic;html=1;rounded=0;" edge="1" parent="1">
          <mxGeometry width="50" height="50" relative="1" as="geometry">
            <mxPoint x="-1358" y="60" as="sourcePoint" />
            <mxPoint x="-1180" y="60" as="targetPoint" />
          </mxGeometry>
        </mxCell>
        <mxCell id="Y2tLaWggDs4rHhR7xXSm-53" value="RX_CHECK_EN" style="edgeLabel;html=1;align=center;verticalAlign=middle;resizable=0;points=[];fontSize=18;" vertex="1" connectable="0" parent="Y2tLaWggDs4rHhR7xXSm-48">
          <mxGeometry x="-0.5268" y="5" relative="1" as="geometry">
            <mxPoint x="38" y="3" as="offset" />
          </mxGeometry>
        </mxCell>
        <mxCell id="Y2tLaWggDs4rHhR7xXSm-49" value="" style="endArrow=classic;html=1;rounded=0;" edge="1" parent="1">
          <mxGeometry width="50" height="50" relative="1" as="geometry">
            <mxPoint x="-1188" y="110" as="sourcePoint" />
            <mxPoint x="-1350" y="110" as="targetPoint" />
          </mxGeometry>
        </mxCell>
        <mxCell id="Y2tLaWggDs4rHhR7xXSm-54" value="SIPO_DONE" style="edgeLabel;html=1;align=center;verticalAlign=middle;resizable=0;points=[];fontSize=18;" vertex="1" connectable="0" parent="Y2tLaWggDs4rHhR7xXSm-49">
          <mxGeometry x="-0.0884" y="-1" relative="1" as="geometry">
            <mxPoint x="1" as="offset" />
          </mxGeometry>
        </mxCell>
        <mxCell id="Y2tLaWggDs4rHhR7xXSm-55" value="" style="endArrow=classic;html=1;rounded=0;" edge="1" parent="1">
          <mxGeometry width="50" height="50" relative="1" as="geometry">
            <mxPoint x="-446" y="-221" as="sourcePoint" />
            <mxPoint x="-183" y="-221" as="targetPoint" />
            <Array as="points">
              <mxPoint x="-311" y="-221" />
            </Array>
          </mxGeometry>
        </mxCell>
        <mxCell id="Y2tLaWggDs4rHhR7xXSm-58" value="" style="endArrow=classic;html=1;rounded=0;" edge="1" parent="1">
          <mxGeometry width="50" height="50" relative="1" as="geometry">
            <mxPoint x="-452" y="-131" as="sourcePoint" />
            <mxPoint x="-167" y="-131" as="targetPoint" />
            <Array as="points">
              <mxPoint x="-317" y="-131" />
            </Array>
          </mxGeometry>
        </mxCell>
        <mxCell id="Y2tLaWggDs4rHhR7xXSm-59" value="" style="endArrow=classic;html=1;rounded=0;" edge="1" parent="1">
          <mxGeometry width="50" height="50" relative="1" as="geometry">
            <mxPoint x="-449" y="-32" as="sourcePoint" />
            <mxPoint x="-158" y="-32" as="targetPoint" />
            <Array as="points">
              <mxPoint x="-315" y="-32.5" />
            </Array>
          </mxGeometry>
        </mxCell>
        <mxCell id="Y2tLaWggDs4rHhR7xXSm-60" value="" style="endArrow=classic;html=1;rounded=0;" edge="1" parent="1">
          <mxGeometry width="50" height="50" relative="1" as="geometry">
            <mxPoint x="-449" y="89" as="sourcePoint" />
            <mxPoint x="-135" y="89" as="targetPoint" />
            <Array as="points">
              <mxPoint x="-313" y="89" />
            </Array>
          </mxGeometry>
        </mxCell>
        <mxCell id="Y2tLaWggDs4rHhR7xXSm-65" value="DATA_VALID" style="text;html=1;strokeColor=none;fillColor=none;align=center;verticalAlign=middle;whiteSpace=wrap;rounded=0;fontSize=21;" vertex="1" parent="1">
          <mxGeometry x="-343" y="-275" width="60" height="30" as="geometry" />
        </mxCell>
        <mxCell id="Y2tLaWggDs4rHhR7xXSm-66" value="P_DATA_OUT" style="text;html=1;align=center;verticalAlign=middle;resizable=0;points=[];autosize=1;strokeColor=none;fillColor=none;fontSize=21;" vertex="1" parent="1">
          <mxGeometry x="-397" y="-178" width="153" height="37" as="geometry" />
        </mxCell>
        <mxCell id="Y2tLaWggDs4rHhR7xXSm-67" value="parity_error" style="text;html=1;align=center;verticalAlign=middle;resizable=0;points=[];autosize=1;strokeColor=none;fillColor=none;fontSize=21;" vertex="1" parent="1">
          <mxGeometry x="-381" y="-72" width="125" height="37" as="geometry" />
        </mxCell>
        <mxCell id="Y2tLaWggDs4rHhR7xXSm-69" value="stop_error" style="text;html=1;align=center;verticalAlign=middle;resizable=0;points=[];autosize=1;strokeColor=none;fillColor=none;fontSize=21;" vertex="1" parent="1">
          <mxGeometry x="-388" y="50" width="114" height="37" as="geometry" />
        </mxCell>
        <mxCell id="Y2tLaWggDs4rHhR7xXSm-83" value="TOP" style="text;html=1;strokeColor=none;fillColor=none;align=center;verticalAlign=middle;whiteSpace=wrap;rounded=0;fontSize=29;" vertex="1" parent="1">
          <mxGeometry x="-1265" y="-566" width="60" height="30" as="geometry" />
        </mxCell>
        <mxCell id="Y2tLaWggDs4rHhR7xXSm-84" value="CU" style="text;html=1;strokeColor=none;fillColor=none;align=center;verticalAlign=middle;whiteSpace=wrap;rounded=0;fontSize=24;" vertex="1" parent="1">
          <mxGeometry x="-1660" y="-295" width="60" height="30" as="geometry" />
        </mxCell>
        <mxCell id="Y2tLaWggDs4rHhR7xXSm-85" value="DP" style="text;html=1;strokeColor=none;fillColor=none;align=center;verticalAlign=middle;whiteSpace=wrap;rounded=0;fontSize=21;" vertex="1" parent="1">
          <mxGeometry x="-882" y="-313" width="60" height="30" as="geometry" />
        </mxCell>
        <mxCell id="Y2tLaWggDs4rHhR7xXSm-86" value="" style="endArrow=classic;html=1;rounded=0;" edge="1" parent="1">
          <mxGeometry width="50" height="50" relative="1" as="geometry">
            <mxPoint x="-1356" y="-178" as="sourcePoint" />
            <mxPoint x="-1160" y="-178" as="targetPoint" />
          </mxGeometry>
        </mxCell>
        <mxCell id="Y2tLaWggDs4rHhR7xXSm-89" value="Sample_Out_Reg" style="edgeLabel;html=1;align=center;verticalAlign=middle;resizable=0;points=[];fontSize=18;" vertex="1" connectable="0" parent="Y2tLaWggDs4rHhR7xXSm-86">
          <mxGeometry x="-0.1429" y="4" relative="1" as="geometry">
            <mxPoint y="-3" as="offset" />
          </mxGeometry>
        </mxCell>
      </root>
    </mxGraphModel>
  </diagram>
</mxfile>
